<?xml version="1.0" standalone="no"?>
<svg viewBox="0 0 200 200" xmlns="http://www.w3.org/2000/svg">
  <path fill="#066975" d="M41.5,-67.5C53,-57.1,61,-44.3,66.9,-30.8C72.8,-17.2,76.4,-2.8,76.4,12.4C76.3,27.6,72.6,43.6,63.2,55.1C53.8,66.6,38.7,73.6,23.5,76.4C8.3,79.2,-7.1,77.9,-20.6,72.7C-34.1,67.6,-45.8,58.7,-55.2,47.8C-64.6,36.9,-71.8,24.1,-75.6,9.7C-79.5,-4.7,-80,-20.7,-73.6,-33.1C-67.2,-45.6,-53.9,-54.4,-40.5,-63.8C-27.1,-73.3,-13.5,-83.5,0.7,-84.6C15,-85.7,30,-77.8,41.5,-67.5Z" transform="translate(100 100)" />
</svg>
