<?xml version="1.0" encoding="UTF-8" standalone="no"?>
<svg
   viewBox="0 0 200 200"
   version="1.1"
   id="svg1"
   sodipodi:docname="lara_blob.svg"
   inkscape:version="1.3.2 (091e20ef0f, 2023-11-25, custom)"
   xmlns:inkscape="http://www.inkscape.org/namespaces/inkscape"
   xmlns:sodipodi="http://sodipodi.sourceforge.net/DTD/sodipodi-0.dtd"
   xmlns="http://www.w3.org/2000/svg"
   xmlns:svg="http://www.w3.org/2000/svg">
  <defs
     id="defs1" />
  <sodipodi:namedview
     id="namedview1"
     pagecolor="#ffffff"
     bordercolor="#000000"
     borderopacity="0.25"
     inkscape:showpageshadow="2"
     inkscape:pageopacity="0.0"
     inkscape:pagecheckerboard="0"
     inkscape:deskcolor="#d1d1d1"
     inkscape:zoom="1.54"
     inkscape:cx="100"
     inkscape:cy="100"
     inkscape:window-width="1906"
     inkscape:window-height="1028"
     inkscape:window-x="0"
     inkscape:window-y="0"
     inkscape:window-maximized="1"
     inkscape:current-layer="svg1" />
  <path
     fill="#066975"
     d="M28.9,-53.5C33.6,-41.9,30.9,-27.4,39.4,-15.9C47.9,-4.4,67.6,4.1,73.3,15.3C79.1,26.4,70.8,40.3,60.7,53.2C50.5,66.1,38.5,78,24.7,80.4C10.9,82.8,-4.6,75.7,-17.8,68.3C-30.9,60.9,-41.7,53.2,-43.8,42.5C-46,31.9,-39.6,18.3,-39.5,6.8C-39.4,-4.7,-45.6,-14.2,-48.3,-27.8C-51,-41.4,-50.2,-59.1,-41.6,-69C-32.9,-78.8,-16.5,-80.6,-2.2,-77.2C12.1,-73.8,24.2,-65.1,28.9,-53.5Z"
     id="path1"
     transform="translate(100 100)" />
</svg>
